<?xml version="1.0" encoding="utf-8"?>
<!-- Generator: Adobe Illustrator 23.0.1, SVG Export Plug-In . SVG Version: 6.00 Build 0)  -->
<svg version="1.1" id="圖層_1" xmlns="http://www.w3.org/2000/svg" xmlns:xlink="http://www.w3.org/1999/xlink" x="0px" y="0px"
	 viewBox="0 0 595.28 595.28" style="enable-background:new 0 0 595.28 595.28;" xml:space="preserve">
<style type="text/css">
	.st0{fill:#FFFFFF;}
</style>
<g>
	<g>
		<g>
			<path class="st0" d="M323.95,541.33c3.9,2.77,8.54,3.17,12.2-0.93c3.39-3.8,2.71-8.05,0.21-11.93c-1.81-2.8-4.06-5.37-6.39-7.77
				c-2.19-2.26-4.69-4.21-7.08-6.27c3.65,1.43,7.26,2.97,10.97,4.23c17.02,5.76,33.47,6.35,48.28-5.89
				c4.18-3.46,7.25-7.64,6.96-13.45c-0.34-6.83-5.28-10.17-11.57-7.56c-5.18,2.15-10.17,4.78-15.25,7.18
				c-14.25,6.73-29.29,8.36-44.88,6.86c26.13-3.54,50.96-10.87,73.74-24.54c-64.37,31.45-128.27,30.56-191.8-2.5
				c24.06,15,50.34,23.4,78.25,27.51c-9.46,0.06-19.03,0.29-27.92-2.05c-10.39-2.74-20.19-7.71-30.22-11.78
				c-3.34-1.36-7.2-3.46-9.77,0.01c-2,2.7-3.74,7.08-2.95,10c1.08,4.01,4,8.14,7.28,10.83c14.45,11.86,30.69,11.02,47.29,5.42
				c3.73-1.26,7.34-2.88,11-4.36c-1.2,1.11-2.45,2.19-3.56,3.39c-3.42,3.68-7.13,7.17-10.04,11.22c-2.56,3.56-2.82,7.81,0.38,11.42
				c3.44,3.88,7.81,3.73,11.73,1.29c4.24-2.64,8.18-5.87,11.9-9.23c2.41-2.18,4.19-5.07,6.25-7.64c0.31,3.08-0.18,5.77-0.77,8.43
				c-3.02,13.48-4.15,27.01-0.7,40.58c1.88,7.41,5.54,11.22,10.2,11.09c4.61-0.13,8.64-4.16,9.84-11.45
				c1.17-7.15,2.11-14.54,1.67-21.72c-0.58-9.5-2.61-18.92-4.12-29.08c1.88,2.59,3.12,4.98,4.97,6.72
				C314.5,533.54,318.98,537.8,323.95,541.33z M343.04,508.75c10.46-4.42,22.18-9.51,34.05-14.25c2.14-0.86,5.99-1.3,7.05-0.13
				c1.69,1.87,2.75,5.51,2.17,7.94c-0.73,3.03-2.94,6.12-5.33,8.25c-12.47,11.1-26.91,11.07-42.01,6.75
				c11.54-0.08,22.57-1.84,32.01-9.82C361.08,507.94,351.18,508.38,343.04,508.75z M210.21,505.92c-0.85-1.4-1.47-3.08-1.69-4.7
				c-0.85-6.37,3.35-9.52,9.25-7.03c11.93,5.03,23.85,10.1,34.42,14.58c-8.08-0.38-17.94-0.84-27.8-1.3
				c9.28,8.04,20.29,9.86,32.39,9.12C243.59,524.75,217.93,518.71,210.21,505.92z M269.73,539.41c-2.45,1.01-7.29,0.8-8.44-0.76
				c-1.5-2.04-1.59-6.65-0.25-8.98c4.59-8.01,11.89-13.1,22.08-16.81c-5.51,6.4-9.87,11.45-14.78,17.15c8.3,0.74,13.2-3.89,18.42-8
				C283,529.72,277.72,536.11,269.73,539.41z M273.05,513.86c2.97-2.63,5.72-5.66,9.09-7.61c1.87-1.09,4.88-0.19,7.62,1.01
				C284.19,509.46,278.62,511.67,273.05,513.86z M305.25,573.14c-0.23,1.09-0.4,2.41-1.1,3.14c-2.06,2.16-4.34,5.62-6.58,5.66
				c-2.21,0.04-5.5-3.08-6.5-5.55c-1.71-4.23-2.29-9-2.83-13.61c-1.59-13.62,1.5-26.7,4.56-39.3h9.19
				C306.61,539.42,308.79,556.07,305.25,573.14z M314.54,508.43c1.39,2.38,4.6,3.7,7.21,5.37c-5.36-2.17-10.73-4.34-16.09-6.5
				C308.87,506.22,311.79,503.71,314.54,508.43z M312.16,512.78c10.26,3.89,17.72,9,22.32,17.26c1.24,2.23,1.16,6.87-0.36,8.48
				c-1.53,1.62-6.03,1.93-8.47,0.94c-8.03-3.28-13.29-9.75-17.9-18.06c11.59,8.64,12.29,8.95,18.85,8.24
				C322,524.27,317.59,519.13,312.16,512.78z"/>
			<path class="st0" d="M442.22,462.96c-5.91-0.43-12.73-0.01-17.78,2.63c-5.86,3.06-11.09,8.35-15.06,13.8
				c-5.15,7.05-8.65,15.29-13.08,22.88c-11.68,19.98-31.2,28.33-53.58,23.06c-1.06-0.25-2.15-0.41-4.29-0.8
				c15.5,9.48,36.7,7.96,51.1-3.41c4.63-3.66,8.5-8.27,12.72-12.44c-11,24.37-31.73,26.89-54.92,23.92
				c19.73,9.15,45.94,10.37,60.6-16.87c1.24-2.31,2.51-4.62,3.96-6.8c2.17-3.27,4.22-6.71,6.93-9.48c1.21-1.24,3.91-1.39,5.89-1.28
				c0.54,0.03,1.74,3.28,1.2,4.23c-0.97,1.71-2.87,3.17-4.71,4c-0.98,0.44-2.65-0.67-4.01-1.07c3.41,2.13,6.97,3.71,10.4,0.37
				c2.89-2.81,3.41-6.3,1.35-9.75c-2.4-4.01-6.44-4.83-10.31-3.14c-3.13,1.36-5.96,3.78-8.41,6.24c-3,3.01-5.47,6.54-8.17,9.84l0,0
				c5.81-10,11.16-20.29,17.57-29.88c4.43-6.61,11.29-10.37,19.71-9.97c6.47,0.31,10.51,4.15,10.72,9.98
				c0.21,6.09-4.54,12.66-9.91,13.33c-1.58,0.19-3.27-0.53-3.65-0.6c0.58-2.97,1-5.15,1.42-7.32c-1.53-0.14-3.05-0.28-4.58-0.42
				c0.06,2.36-0.66,5.15,0.35,6.99c2.18,3.98,7.65,4.49,12.5,1.86c5.81-3.15,9.2-10.14,8.33-17.15
				C453.7,469.2,449.16,463.47,442.22,462.96z M402.24,508.67C402.24,508.67,402.24,508.67,402.24,508.67l-0.18,0.18
				C402.12,508.79,402.24,508.67,402.24,508.67z"/>
			<path class="st0" d="M200.28,504.28c-3.18-5.06-5.67-10.55-8.54-15.81c-4.79-8.79-10.19-17.08-19.1-22.34
				c-6.98-4.11-14.37-5.39-22.1-2.59c-6.36,2.31-9.9,7.62-9.92,14.22c-0.02,6.92,4,13.44,9.88,15.7c4.34,1.67,8.39,1.45,11.54-2.49
				c-7.04,2.24-10.64,1.44-14.03-3.46c-2.96-4.28-3.97-8.95-1.21-13.71c2.52-4.34,9-6.59,15.09-4.09c4.86,1.99,9.72,5.04,13.28,8.84
				c4.15,4.42,6.99,10.11,10.21,15.37c3.03,4.94,5.57,10.2,8.75,15.03c6.98,10.63,16.82,17.46,29.16,20.52
				c11.46,2.84,22.4,1.44,32.64-4.53c-1.48-0.05-2.91,0.25-4.33,0.57C230.55,530.23,211.78,522.57,200.28,504.28z"/>
			<path class="st0" d="M242.04,532.92c-20.67,2.39-37.78-2.67-48.53-22.25c-2.76-5.02-6.5-9.67-10.53-13.77
				c-2.29-2.34-5.98-4.14-9.21-4.46c-2.37-0.24-6.07,1.71-7.26,3.78c-1.19,2.07-0.92,6.1,0.41,8.18c1.29,2.02,4.75,2.66,7.25,3.91
				c0.2-0.43,0.39-0.85,0.59-1.28c-1.33-0.62-3.4-0.93-3.82-1.93c-0.84-1.98-0.77-4.34-1.07-6.55c2.01,0.05,4.37-0.54,5.94,0.31
				c1.83,1,3.18,3.13,4.38,5c3.02,4.73,5.73,9.66,8.76,14.38c13.21,20.59,36.97,26.48,58.61,13.99
				C245.71,532.45,243.88,532.71,242.04,532.92z"/>
			<path class="st0" d="M339.51,566.48c-9.11-9.57-17.48-18.38-26.88-28.26C312.33,551.96,327.08,567.3,339.51,566.48z"/>
			<path class="st0" d="M256.42,565.88c0.45,0.43,0.91,0.86,1.36,1.29c12.88-2.3,25.73-16.26,24.5-28.63
				C273.12,548.23,264.77,557.05,256.42,565.88z"/>
			<path class="st0" d="M346.78,536.46c-3.99,0.16-6.78,2.7-6.09,6.44c0.49,2.64,3.36,4.84,5.16,7.24c0.89-0.03,1.77-0.05,2.66-0.08
				c1.66-2.5,4.4-4.87,4.72-7.53C353.66,538.81,350.85,536.29,346.78,536.46z"/>
			<path class="st0" d="M249.5,535.43c-0.91,0.02-1.81,0.04-2.71,0.06c-1.66,2.47-4.4,4.81-4.73,7.44
				c-0.46,3.74,2.43,6.28,6.42,6.14c3.89-0.13,6.82-2.58,6.09-6.42C254.06,540.01,251.27,537.82,249.5,535.43z"/>
			<path class="st0" d="M163.09,488.38c-0.51-1.72-1.48-3.31-2.27-4.95c-1.31,0.67-2.61,1.34-3.92,2c0.95,1.47,1.77,3.05,2.9,4.38
				c0.49,0.58,1.48,0.72,2.3,1.02C162.46,490,163.28,489.04,163.09,488.38z"/>
			<path class="st0" d="M162.28,490.9C162.28,490.9,162.28,490.9,162.28,490.9C162.28,490.9,162.28,490.9,162.28,490.9L162.28,490.9
				c-0.06-0.02-0.12-0.04-0.18-0.06c0,0.01-0.01,0.02-0.01,0.03c0.02,0.01,0.08,0.02,0.13,0.03l-0.11-0.02
				c-0.03,0.04-0.06,0.07-0.09,0.1C162.12,490.95,162.2,490.92,162.28,490.9C162.28,490.9,162.28,490.9,162.28,490.9z"/>
			<path class="st0" d="M297.81,532.58c0.7,0.2,2.95-1.94,2.93-2.99c-0.03-1.33-1.65-2.63-3.21-4.82c-1.55,2.14-3.31,3.58-3.08,4.49
				C294.81,530.64,296.42,532.18,297.81,532.58z"/>
			<path class="st0" d="M294.5,538.21c0.89,1.02,1.72,2.8,2.68,2.87c1.24,0.09,2.58-1.19,4.86-2.39c-1.93-1.56-3.08-3.19-3.98-3.05
				C296.77,535.82,295.67,537.29,294.5,538.21z"/>
		</g>
		<g>
			<path class="st0" d="M578.71,289.77c-2.34-1.81-5.88-2.29-8.98-2.85c-12.94-2.34-25.75-1.04-38.47,1.77
				c-1.28,0.28-2.56,0.57-3.85,0.8c-1.26,0.23-2.54,0.4-2.68,0.42c5.14-5.71,10.94-11.46,15.87-17.88
				c3.11-4.05,3.77-9.09-0.63-13.25c-3.41-3.22-8.24-3.22-13.22,1.01c-4.66,3.96-8.62,8.77-12.86,13.24
				c1.36-3.5,2.77-6.98,4.07-10.51c4.59-12.46,6.27-25.15,1.49-37.88c-3.53-9.41-16.22-26.79-27.16-15.55
				c-3.07,3.16-1.8,6.53-0.21,9.86c2.1,4.4,4.16,8.81,6.29,13.19c6.36,13.12,8.34,27.11,8.19,41.52c-0.01,1.28-0.39,2.55-0.59,3.82
				c-3.94-24.13-10.15-47.2-22.32-68.49c26.27,57.35,27.05,114.96,2.19,172.98c11.04-20.1,16.33-41.84,19.88-64.24
				c0.64,1.81,0.84,3.56,0.85,5.32c0.09,14.64-2.5,28.69-9.07,41.9c-2.17,4.36-4.41,8.7-6.24,13.2c-1.94,4.75-0.19,8.36,4.62,10.28
				c5.71,2.29,10.35-0.17,14.29-3.91c9.17-8.7,13.44-19.82,11.66-32.06c-1.49-10.27-5.28-20.21-8.09-30.28
				c1.1,1.28,2.13,2.63,3.35,3.77c4.08,3.8,7.98,7.87,12.45,11.15c3.2,2.35,7.14,2.25,10.36-0.72c3.11-2.87,4.1-6.59,2.07-10.2
				c-2.54-4.5-5.49-8.88-8.9-12.76c-2.65-3.01-6.28-5.17-10.28-8.36c2.02,0.37,3.03,0.62,4.06,0.73
				c11.69,1.24,23.36,3.02,35.08,3.44c5.59,0.2,11.52-1.56,16.79-3.68c2.52-1.01,5.4-5,5.32-7.55
				C583.98,295.15,581.25,291.72,578.71,289.77z M494.81,218.88c-0.64-1.73-1.21-3.6-1.01-5.43c0.46-4.2,6.13-5.21,9.42-4.04
				c3.37,1.2,5.72,4.09,7.84,6.82c2.37,3.06,4.67,6.12,6.25,9.68c4.41,9.85,2.89,20.42-0.22,30.71c0.08-11.82-1.74-23.01-9.82-32.52
				c0.4,9.03,0.81,18.07,1.21,27c-3.05-7.09-6.18-14.14-9.19-21.24c-1.44-3.39-2.88-6.79-4.21-10.23
				C495,219.38,494.91,219.13,494.81,218.88z M513.26,274.21c-2.06,5.04-4.15,10.14-6.65,16.27
				C503.84,281.88,510.22,278.8,513.26,274.21z M505.82,307.38c0.08-0.46,0.35-0.88,0.99-2.43c2.33,5.87,4.35,10.94,6.34,15.96
				C510.41,316.56,504.67,313.84,505.82,307.38z M511.05,380.24c-3.84,4.54-10.56,7.61-16.24,4.61c-3.88-2.05-1.3-5.91-0.01-8.94
				c4.56-10.76,9.16-21.51,12.95-30.4v25.37c5.07-4.7,5.76-6.99,9.7-33.16C521.16,353.78,521.51,367.86,511.05,380.24z
				 M524.04,307.75c4.89,5.45,10.07,10.68,14.57,16.43c2.32,2.96,3.3,6.96-0.09,10.21c-3.49,3.35-6.99,1.49-10.16-0.65
				c-7.52-5.08-12.31-12.26-15.88-21.82c6.06,5.26,11.26,9.78,16.51,14.33c1.55-5.23,0.71-7.37-6.58-17.04
				C522.96,308.73,523.5,308.24,524.04,307.75z M521.61,287.31c4.34-6.4,8.95-11.18,8.19-19.17c-6.1,5.34-11.28,9.86-17.36,15.19
				c3.76-10.03,8.73-17.8,17.2-22.53c2.26-1.26,7.17-1.45,8.39-0.03c1.68,1.97,2.17,6.43,1.12,8.97
				C536.04,277.22,529.97,282.33,521.61,287.31z M574.93,304.7c-14.35,4.58-28.88,2.91-43.3-0.2c-3.08-0.66-6.09-1.61-8.51-2.26
				v-8.96c16.58-4.91,34.13-7.9,52-2.49c2.78,0.84,6.52,4.65,6.46,7.01C581.54,300.22,577.77,303.79,574.93,304.7z"/>
			<path class="st0" d="M479.43,186.08c7.22,4.66,14.97,8.5,22.5,12.67c8.24,4.56,14.71,10.85,19.23,19.16
				c6.74,12.41,6.98,25.32,3.24,38.71c1.53-2.37,2.82-4.78,3.67-7.33c7.48-22.53-2.09-45.88-23.85-58.4
				c-7.46-4.29-15.06-8.37-22.35-12.93c-6.4-4-10.82-9.79-12.8-17.18c-1.71-6.39,0.88-12.83,5.8-14.97c4.99-2.17,12.55-0.23,15.27,5
				c1.49,2.85,0.97,6.75,1.29,10.22c3.87-4.72,3.9-9.03,0.1-13.97c-4.55-5.92-13.13-8.41-19.66-5.71
				c-6.76,2.79-10.77,10.48-9.82,19.12C463.32,172.05,470.15,180.1,479.43,186.08z"/>
			<path class="st0" d="M491.35,161.15C491.35,161.15,491.35,161.15,491.35,161.15c0.03,0.05,0.06,0.1,0.09,0.14
				c0,0.01-0.01-0.02-0.03-0.05l0.04,0.06c-0.01-0.09-0.01-0.18-0.02-0.26C491.41,161.08,491.38,161.11,491.35,161.15L491.35,161.15
				z"/>
			<path class="st0" d="M491.28,434.15c0.03,0.02,0.05,0.04,0.08,0.07c0.01-0.07,0.01-0.14,0.02-0.21L491.28,434.15z"/>
			<path class="st0" d="M492.39,175.29c1.2,3.51,3.61,7.08,6.44,9.47c5.56,4.69,11.74,8.65,17.76,12.77
				c8.48,5.81,14.26,13.61,15.21,23.84c0.82,8.86,0.17,17.85,0.17,26.93c12.17-17.25,7.24-44.75-10.35-57.09
				c-6.58-4.62-13.74-8.4-20.3-13.05c-1.98-1.4-2.94-4.39-3.98-6.82c-0.17-0.39,2.02-2.53,2.48-2.34c2.34,0.99,4.45,2.49,6.67,3.76
				c0.21,0.12,0.61-0.08,0.92-0.13c-1.08-5.83-4.41-8.39-9.51-7.33C493.59,166.21,490.73,170.45,492.39,175.29z"/>
			<path class="st0" d="M532.78,367.79c-0.61,15.57-10.02,28.91-23.52,33.76l0,0c8.99-7.6,16.54-16.18,19.59-27.97
				c2.95-11.41,2.2-22.37-3.44-32.82c-0.3,1.12-0.21,2.21,0.01,3.26c4.62,22.33-4.07,41.47-23.97,52.61
				c-5.23,2.92-10.83,5.26-15.75,8.62c-5.97,4.08-12.04,8.38-16.89,13.66c-6.23,6.79-8.46,15.35-5.86,24.6
				c1.96,6.95,7.46,11.16,14.36,11.27c7.33,0.11,14.11-4.25,16.32-10.62c1.3-3.75,1.34-7.3-2.26-9.95
				c-0.33,3.46,0.19,7.38-1.32,10.21c-2.78,5.22-10.24,7.06-15.23,4.83c-4.93-2.2-7.44-8.51-5.74-14.92
				c1.95-7.37,6.32-13.19,12.73-17.11c9.05-5.54,18.4-10.6,27.62-15.86l-0.01,0.01c-3.83,3.19-8.05,6-11.34,9.66
				c-2.61,2.91-4.98,6.65-5.83,10.39c-1.12,4.93,2.48,8.43,7.25,8.57c4.87,0.14,7.32-2.37,7.58-6.86c-2.14,0.96-4.57,2.32-7.17,3.02
				c-0.62,0.17-2.84-2.4-2.62-2.82c1.33-2.51,3.1-4.8,4.83-7.09c0.43-0.56,1.22-0.85,1.85-1.25c6.04-3.78,12.28-7.26,18.08-11.38
				c17.17-12.19,22.04-40.33,10.78-55.53C532.82,353.97,533.05,360.89,532.78,367.79z"/>
			<path class="st0" d="M566.89,254.99c-10.1,9.63-19.12,18.23-28.14,26.84C551.81,282.64,565.88,269.11,566.89,254.99z"/>
			<path class="st0" d="M537.71,312.3c10.05,9.6,19.06,18.21,28.06,26.82c0.43-0.45,0.86-0.91,1.28-1.36
				C565.15,324.45,549.47,311.68,537.71,312.3z"/>
			<path class="st0" d="M540.37,340.46c-1.09,1.74-3.67,4.11-4.01,6.77c-0.5,3.85,2.48,6.15,6.4,6.03c3.98-0.13,6.16-2.62,6.04-6.57
				C548.67,342.65,546.19,340.74,540.37,340.46z"/>
			<path class="st0" d="M542.66,254.49c4.05-0.06,6.68-2.64,5.96-6.4c-0.5-2.64-3.21-4.85-4.93-7.26c-0.91,0.02-1.83,0.05-2.74,0.07
				c-1.62,2.48-4.24,4.82-4.61,7.48C535.82,252.19,538.67,254.55,542.66,254.49z"/>
			<path class="st0" d="M483.47,434.66c-0.39,0.78,0.66,3.24,1.45,3.44c1.22,0.31,2.92-0.43,4.13-1.18
				c0.95-0.59,1.52-1.79,2.23-2.76c-1.41-0.7-2.83-1.98-4.2-1.93C485.79,432.27,484.07,433.49,483.47,434.66z"/>
			<path class="st0" d="M491.38,434.01c-0.04,0.05-0.07,0.1-0.11,0.15c0,0,0,0,0,0C491.28,434.15,491.38,434.01,491.38,434.01z"/>
			<path class="st0" d="M489.38,158.8c-1.35-0.86-2.9-1.67-4.43-1.82c-0.44-0.04-1.85,3.07-1.54,3.35c1.3,1.19,3,2.22,4.71,2.56
				c0.92,0.19,2.14-1.11,3.23-1.74C490.71,160.32,490.2,159.32,489.38,158.8z"/>
			<path class="st0" d="M525.99,297.11c1.04,1.24,1.89,3.08,3.19,3.5c0.91,0.29,2.45-1.36,4.64-2.72c-1.96-1.58-3.1-3.21-4.24-3.22
				C528.38,294.67,527.18,296.23,525.99,297.11z"/>
		</g>
		<g>
			<path class="st0" d="M48.75,308.73c7.66-0.45,15.24-2.33,21.87-3.41c-5,5.41-10.88,10.87-15.61,17.19
				c-4.06,5.42-3.38,10.52,0.18,13.81c3.56,3.29,8.48,3.26,13.7-1.22c4.52-3.88,8.32-8.6,12.41-12.98
				c-0.96,2.65-1.81,5.34-2.94,7.91c-4.6,10.38-6.36,21.24-4.64,32.4c1.69,10.98,6.48,20.37,16.88,25.73
				c4.22,2.17,8.43,1.52,12-1.71c3.75-3.39,2.14-7.09,0.38-10.75c-1.95-4.05-3.86-8.12-5.84-12.16
				c-6.49-13.28-8.63-27.42-8.41-42.03c0.02-1.27,0.37-2.54,0.57-3.81c7.54,36.39,18.14,67.33,27.06,76.55
				c-30.84-59.43-33.07-119.66-6.99-181.04c-11,20.09-16.25,41.83-20.19,64.1c-0.28-7.9-0.9-16,1.17-23.35
				c3.38-11.98,8.45-23.49,12.96-35.13c0.97-2.5,2.6-5.77,0.91-8.31c-1.33-2-4.08-2.87-6.27-3.52c-6.99-2.07-13.37,3.82-17.36,8.94
				c-8.33,10.7-8.87,23.3-6.25,35.93c1.5,7.21,4.46,14.11,6.81,21.14c-0.79-1.03-1.54-2.1-2.43-3.03
				c-3.36-3.49-6.51-7.26-10.27-10.27c-5.1-4.09-9.8-4.16-13.23-0.84c-4.11,3.97-3.51,8.58-0.81,12.82
				c2.49,3.91,5.45,7.6,8.66,10.94c2.5,2.61,5.7,4.55,7.52,5.96c-11.71-0.92-24.32-2.4-36.95-2.69c-5.62-0.13-11.58,1.42-16.83,3.57
				c-2.66,1.09-5.61,5.19-5.62,7.94c-0.01,2.76,3.09,5.99,5.58,8.14c1.82,1.57,4.82,2.27,7.35,2.44
				C32.33,308.5,40.58,309.2,48.75,308.73z M66.93,333.76c-3.14,2.16-6.65,4.01-10.19,0.64c-3.21-3.06-2.15-6.59-0.41-9.82
				c3.71-6.89,9.16-12.06,15.82-15.75c-2.66,5.42-5.33,10.87-8,16.31c0.62,0.41,1.24,0.83,1.87,1.25
				c5.25-4.53,10.5-9.05,16.73-14.44C79.26,321.5,74.4,328.63,66.93,333.76z M100.87,377.13c1.33,3.33,0.58,7.16-2.9,8.74
				c-7.4,3.36-15.25-7.56-18.34-12.91c-6.35-11-4.74-22.84-1.54-34.47c0.84,17.07,3.1,25.4,10.07,33.54
				c-0.35-5.66-0.74-10.34-0.89-15.03c-0.14-4.65-0.03-9.31-0.03-12.13C91.4,354.62,96.36,365.79,100.87,377.13z M81.86,321.09
				c2.14-5.17,4.3-10.37,6.84-16.49C91.41,313.09,85.13,316.43,81.86,321.09z M88.8,290.28c-2.61-6.02-4.81-11.09-6.99-16.12
				C85.18,278.58,91.16,281.74,88.8,290.28z M86.05,212.87c1.71-1.65,3.9-3.53,6.05-3.79c2.64-0.31,6.29-0.84,8.37,1.29
				c1.95,1.99,1.26,5.47,0.34,7.78c-4.47,11.24-9.36,22.31-14.05,33.3c0.4-8.81,0.82-18.07,1.31-28.9
				c-8.26,11.04-9.98,22.29-9.32,34.97C72.07,242.73,75.44,223.09,86.05,212.87z M56.13,270.18c-1.7-3.27-2.49-6.83,0.88-9.72
				c3.19-2.75,6.35-1.36,9.26,0.53c7.91,5.15,12.95,12.47,16.42,22.18c-6.01-5.23-11.26-9.79-17.11-14.87
				c-0.85,7.83,3.38,12.56,7.04,17.76C65.42,282.55,59.82,277.29,56.13,270.18z M20.37,304.41c-2.83-0.84-6.3-4.17-6.88-6.9
				c-0.91-4.28,3.38-6.23,7.05-7.31c12.87-3.79,25.86-2.88,38.82-0.45c4.54,0.85,8.99,2.15,12.79,3.08v8.99
				C55.68,306.77,38.19,309.72,20.37,304.41z"/>
			<path class="st0" d="M103.74,433.85c0.02,0.03,0.09,0.13,0.09,0.13c0.01-0.01,0.02-0.02,0.03-0.03
				C103.82,433.92,103.78,433.88,103.74,433.85l-0.02-0.03c-0.02,0.12-0.02,0.23-0.04,0.35c0.05-0.06,0.09-0.13,0.14-0.19
				L103.74,433.85z"/>
			<path class="st0" d="M115.35,408.7c-7.36-4.77-15.42-8.46-22.99-12.92c-14.61-8.6-22.87-21.44-23.66-38.41
				c-0.29-6.21,1.2-12.51,1.81-18.19c-8.87,12.47-7.82,34.66,3.2,49.42c3.53,4.73,8.12,8.65,12.23,12.95c0,0,0.01,0.01,0.01,0.01
				c-11.87-5.15-20.4-13.65-22.2-26.62c-1.27-9.13-0.25-18.57-0.25-29.15c-0.95,1.42-1.3,1.84-1.53,2.32
				c-11.38,23.39-4.67,46.17,17.47,59.64c5.43,3.3,10.98,6.52,15.93,10.46c1.52,1.21,2.52,5.77,1.54,6.91
				c-2.38,2.8-5.35,1.45-7.34-1.52c-0.37-0.56-0.81-1.07-1.57-2.05c0.55,6.17,2.99,8.61,7.83,8.43c4.79-0.17,8.29-3.64,7.16-8.62
				c-0.85-3.73-3.23-7.46-5.85-10.36c-3.31-3.65-7.55-6.46-11.38-9.64l0,0c5.91,3.2,11.91,6.26,17.71,9.65
				c4.51,2.64,9.06,5.33,13.08,8.64c6.12,5.03,10.37,11.39,10,19.78c-0.36,8.07-6.77,12.44-14.46,10.09
				c-6.87-2.1-9.47-6.85-8.4-15.34c-3.81,4.98-3.67,9.43,0.45,14.38c4.5,5.41,12.56,7.73,18.81,5.41
				c6.28-2.33,10.36-8.58,10.33-16.55C133.24,424.21,125.66,415.38,115.35,408.7z M85.94,401.55l-0.06-0.06
				C85.91,401.51,85.94,401.54,85.94,401.55z"/>
			<path class="st0" d="M103.61,159c-1.44-6.69,3.02-12.68,10.34-13.81c6.94-1.07,12.09,3.06,12.6,10.22
				c0.5,7.07-2.39,13.09-7.41,17.53c-5,4.43-10.83,7.94-16.47,11.6c-6.9,4.48-14.49,8.04-20.87,13.14
				c-17.62,14.12-22.44,41.49-10.59,59.45c-0.21-1.32-0.26-2.01-0.43-2.68c-6.4-25.04,2.21-44.67,25-57.06
				c6.42-3.49,12.97-6.79,19.15-10.67c7.41-4.66,13.6-10.64,16.65-19.18c2.44-6.83,2.71-13.65-1.1-20.08
				c-4.49-7.58-14.27-9.45-22.2-4.46c-7.34,4.62-9.08,11.49-4.67,18.46C103.64,160.64,103.78,159.78,103.61,159z"/>
			<path class="st0" d="M62.88,243.48c-2.76-21.4,1.87-39.38,22.44-50.59c5.02-2.74,9.42-6.73,13.79-10.52
				c3.44-2.98,5.02-7.06,3.82-11.67c-1.21-4.67-4.73-6.02-9.11-5.39c-3.99,0.57-5.69,3.12-5.36,7.99c0.54-0.87,0.81-1.87,1.31-2.01
				c2.39-0.67,4.84-1.11,7.27-1.63c-0.33,2.3-0.25,4.77-1.12,6.85c-0.57,1.35-2.44,2.23-3.86,3.12c-5.06,3.19-10.23,6.22-15.27,9.44
				c-20.17,12.88-26.05,37.89-13.17,60.26C63.24,246.41,63.07,244.94,62.88,243.48z"/>
			<path class="st0" d="M57.32,282.52c-9.86-9.38-18.87-17.95-27.89-26.52C29.13,270.01,46.46,284.02,57.32,282.52z"/>
			<path class="st0" d="M28.29,337.89c0.43,0.39,0.86,0.79,1.29,1.18c8.96-8.59,17.93-17.18,26.89-25.78
				C43.04,313.03,30.61,324.87,28.29,337.89z"/>
			<path class="st0" d="M60.14,345.83c-2.37-1.75-4.54-4.46-7.17-5.01c-3.81-0.81-6.35,1.87-6.5,5.86c-0.14,3.97,2.21,6.87,6.03,6.4
				c2.66-0.33,5.03-2.91,7.53-4.49C60.07,347.67,60.1,346.75,60.14,345.83z"/>
			<path class="st0" d="M54.65,254.77c1.16-1.7,3.8-3.97,4.26-6.61c0.66-3.85-2.21-6.26-6.14-6.27c-3.96-0.02-6.3,2.35-6.32,6.32
				C46.45,252.19,48.83,254.26,54.65,254.77z"/>
			<path class="st0" d="M110.29,438.38c0.52-1.42,1.05-2.84,1.57-4.26c-2.09-0.49-4.17-1.1-6.29-1.41c-0.5-0.07-1.13,0.78-1.71,1.24
				c0.5,0.48,0.96,0.99,1.52,1.36C106.99,436.38,108.65,437.36,110.29,438.38z"/>
			<path class="st0" d="M111.8,160.43c0.38-0.81-0.71-3.27-1.48-3.44c-1.24-0.27-2.96,0.47-4.11,1.3c-1.06,0.76-1.71,2.1-2.51,3.23
				c1.53,0.53,3.09,1.58,4.54,1.44C109.55,162.84,111.24,161.62,111.8,160.43z"/>
			<path class="st0" d="M103.59,161.69C103.59,161.69,103.59,161.69,103.59,161.69C103.59,161.69,103.59,161.69,103.59,161.69
				L103.59,161.69c0.04-0.05,0.08-0.11,0.12-0.17c-0.02-0.01-0.03-0.01-0.05-0.02c-0.01,0.02-0.04,0.1-0.06,0.15l0.04-0.12
				c-0.01-0.02-0.02-0.04-0.04-0.07C103.6,161.54,103.59,161.61,103.59,161.69C103.59,161.68,103.59,161.69,103.59,161.69z"/>
			<path class="st0" d="M66.3,294.3c-1.17,1.13-2.91,2.1-3.31,3.46c-0.24,0.81,1.63,2.24,3.19,4.19c1.42-1.98,3.01-3.23,2.91-4.32
				C68.98,296.44,67.3,295.41,66.3,294.3z"/>
		</g>
		<g>
			<path class="st0" d="M154.28,132.65c13.54,1.95,23.23-4.79,30.5-15.09c5.05-7.15,8.87-15.17,13.12-22.86
				c10.76-19.48,28.39-28.81,49.26-25.91c2.93,0.41,5.82,1.12,8.72,1.7c-1.51-1.47-3.22-2.46-5.05-3.12
				c-16.47-5.92-31.78-3.37-45.6,7.07c-4.54,3.43-8.2,8.03-12.26,12.09l0.2-0.2l0,0c-3.47,6.6-6.67,13.36-10.5,19.75
				c-2.77,4.62-5.98,9.12-9.68,13.01c-4.97,5.23-11.45,8.49-18.72,6.64c-3.24-0.83-6.99-3.96-8.33-7c-2.2-5-0.03-10.21,4.38-13.4
				c2.45-1.78,6.01-2.03,9.07-2.97c0.23,0.63,0.47,1.26,0.7,1.88c-0.91,0.8-2.27,1.44-2.63,2.43c-0.44,1.23-0.38,2.9,0.13,4.11
				c0.26,0.64,2.23,1.24,2.89,0.89c1.15-0.62,2.32-1.89,2.66-3.11c0.3-1.06-0.3-2.56-0.89-3.66c-2.29-4.29-7.58-5.38-12.78-2.77
				c-6.23,3.13-9.77,10.56-8.61,18.04C141.88,126.61,147.02,131.6,154.28,132.65z"/>
			<path class="st0" d="M212.19,83.21c-3.9,3.52-6.55,7.72-5.97,13.3c0.65,6.21,5.31,9.21,11.11,7.05c2.45-0.91,4.82-2.07,7.11-3.32
				c16.9-9.25,34.92-13.06,54.12-11.33c0.93,0.08,1.92-0.4,4-0.89c-3.97-2.88-7.05-5.11-10.14-7.35l0,0
				c5.77,2.45,11.54,4.9,16.84,7.15c-14.59,2.75-29.4,4.88-43.85,8.45c-14.58,3.6-28.48,9.4-41.24,17.71
				c60.04-29.67,120.52-30.66,181.59-3.11c-22.02-12.1-45.51-18.71-70.08-21.9c1.28-0.11,2.56-0.22,3.84-0.28
				c14.19-0.58,28.06,0.83,41.15,6.82c5.27,2.42,10.33,5.41,15.78,7.28c2.79,0.96,7.29,1.26,9.11-0.33
				c2.19-1.92,3.86-6.59,3.06-9.28c-1.23-4.19-4.02-8.57-7.4-11.35c-14.41-11.87-30.66-11-47.24-5.4
				c-3.86,1.31-7.62,2.93-11.42,4.41l0,0c1.4-1.19,2.93-2.27,4.17-3.61c3.42-3.68,7.11-7.2,9.97-11.28
				c2.52-3.6,2.62-7.84-0.67-11.39c-3.35-3.61-7.74-3.73-11.27-1.22c-5.42,3.85-10.23,8.57-15.2,13.04
				c-1.26,1.14-2.13,2.71-3.18,4.08c0.52-7.84,2.07-15.14,2.95-22.53c1.25-10.5,1.17-21.1-3.24-30.89c-1.31-2.9-5.03-5.81-8.14-6.51
				c-4.21-0.95-7.32,2.54-8.64,6.54c-1.34,4.05-2.41,8.27-2.93,12.5c-1.75,14.32,0.74,28.29,4.01,42.29
				c-2.26-2.3-3.77-5.2-6.07-7.16c-5.05-4.31-10.23-8.64-15.95-11.91c-2-1.14-6.76-0.19-8.44,1.56c-1.93,2-2.86,6.13-2.34,8.99
				c0.55,3.05,2.96,6.02,5.18,8.46c2.98,3.29,6.54,6.04,9.85,9.02l-0.13-0.12c0.06,0.05,0.13,0.12,0.14,0.12
				c-5.38-2.01-10.65-4.51-16.2-5.97C240.47,70.69,225.22,71.44,212.19,83.21z M371.02,78.27c4.77,2.23,9.03,5.9,12.89,9.59
				c1.78,1.7,2.7,4.98,2.82,7.6c0.24,5.34-3.63,7.81-8.55,5.72c-4.12-1.75-7.97-4.17-12.14-5.79c-8.11-3.15-16.35-5.95-25.09-9.09
				c10.26,0.47,20.1,0.93,29.95,1.38c-9.24-8-20.2-9.9-31.91-9.77C349.69,74.49,360.55,73.37,371.02,78.27z M325.24,55.88
				c2.57-1.07,7.38-0.87,8.89,0.81c1.54,1.7,1.39,6.6,0.01,8.94c-4.64,7.93-11.88,13.01-21.85,16.57
				c5.29-6.2,9.69-11.35,14.49-16.98c-8.25-0.99-13.02,3.99-19.25,9C312.27,65.52,317.42,59.13,325.24,55.88z M322.76,80.67
				l-0.09,0.08C322.71,80.72,322.75,80.68,322.76,80.67c-3.09,2.33-6.16,4.65-9.23,6.97c0.17,0.38,0.35,0.75,0.52,1.13
				c-2.73-0.34-5.47-0.64-8.23-0.9C311.46,85.47,317.11,83.07,322.76,80.67z M290.6,20.35c0.96-3.72,2.88-8.16,7.13-7.25
				c2.84,0.61,6.21,4.31,7.15,7.31c4.15,13.21,2.91,26.68,0.19,40.04c-0.81,4-1.87,7.96-2.64,11.18h-9.17
				C288.65,55.12,286.04,37.95,290.6,20.35z M260.59,64.65c-1.14-2.11-0.97-6.42,0.48-8.01c1.45-1.59,5.65-2.12,7.94-1.24
				c8.36,3.19,13.73,9.83,17.82,17.71c-5.24-4.03-10.18-8.6-18.51-8.11c4.97,5.84,9.35,10.99,14.78,17.38
				C272.71,78.36,265.17,73.15,260.59,64.65z M250.04,75.82c2.15,0.32,4.23,1.04,6.34,1.58c-11.75,0.4-22.67,2.33-32.1,10.24
				c9.78-0.44,19.55-0.88,27.9-1.25c-10.92,4.62-22.88,9.74-34.9,14.75c-5.16,2.15-9.76-0.67-8.59-6.02
				c0.92-4.19,3.69-8.64,6.92-11.54C225.46,74.75,237.57,73.99,250.04,75.82z"/>
			<path class="st0" d="M401.13,84.03c-2.76-2.48-5.51-4.97-8.28-7.43c-15.38-13.64-39-16.43-54.17-5.94
				c2.06-0.43,3.49-0.72,4.91-1.03c21.55-4.79,40.58,3.23,52,22.12c2.9,4.8,4.82,10.26,8.05,14.8c5.16,7.25,10.48,14.57,16.81,20.75
				c5.56,5.43,13.28,6.72,21.08,5.28c6.98-1.29,11.81-6.06,12.87-12.43c1.19-7.19-2.05-14.56-8.13-17.75
				c-4.22-2.22-8.9-3.2-12.16,1.22c-1.28,1.75-0.64,4.91-0.87,7.43c1.53-0.07,3.07-0.14,4.6-0.21c-0.79-2.13-1.59-4.25-2.37-6.38
				c-0.06-0.15-0.03-0.33-0.06-0.69c3.88-2.43,7.18-0.84,10.05,1.83c3.84,3.57,6.08,8.39,3.87,13.14c-1.42,3.04-5.14,6.26-8.36,6.96
				c-8.48,1.87-15.93-2.01-20.57-8.74c-6.75-9.79-12.24-20.46-18.27-30.75c2.45,3.04,4.63,6.37,7.43,9.05
				c2.89,2.78,6.1,5.57,9.69,7.19c3.62,1.63,7.54,0.5,9.74-3.31c2.02-3.49,1.49-7-1.45-9.74c-3.42-3.19-6.99-1.96-10.34,0.2
				c1.09-0.07,2.37-1.23,3.03-0.94c2.05,0.89,4.33,1.99,5.57,3.7c0.65,0.89-0.61,4.62-1.18,4.66c-1.96,0.14-4.51-0.2-5.88-1.43
				c-2.31-2.08-4-4.91-5.76-7.55c-4.15-6.22-7.76-12.86-12.36-18.73c-13.6-17.39-41.52-14.16-53.11-6.69
				C381.68,61.74,390.41,65.22,401.13,84.03z"/>
			<path class="st0" d="M248.09,62.27c-4.48-1.96-8.86-3.46-13.36-4.45c-19.54-4.31-34.51,1.83-45.44,18.57
				c-2.45,3.76-4.46,7.81-6.93,11.56c-1.94,2.95-3.96,6.01-6.57,8.31c-1.17,1.03-3.88,0.29-5.89,0.36c0.44-2.31,0.16-5.36,1.53-6.73
				c1.24-1.24,4.31-0.66,6.93-0.92c-3.65-1.2-7.16-2.9-10.63,0.42c-2.9,2.79-3.45,6.25-1.43,9.74c2.2,3.81,6.05,4.87,9.74,3.34
				c3.31-1.37,6.36-3.78,8.97-6.31c3.04-2.95,5.47-6.54,8.16-9.85c0,0-0.2,0.2-0.21,0.21C204.03,62.12,224.76,59.55,248.09,62.27z"
				/>
			<path class="st0" d="M312.65,56.93c9.42-9.97,17.81-18.83,26.2-27.7C325.2,29.76,312.34,43.5,312.65,56.93z"/>
			<path class="st0" d="M257.68,28.04c-0.41,0.44-0.82,0.88-1.24,1.33c8.37,8.8,16.74,17.61,26.04,27.4
				C283.16,43.78,270.23,29.9,257.68,28.04z"/>
			<path class="st0" d="M247.18,59.73c0.9-0.03,1.8-0.05,2.7-0.08c1.64-2.49,4.33-4.83,4.68-7.49c0.5-3.82-2.47-6.18-6.42-6.1
				c-4.02,0.09-6.74,2.76-6.08,6.46C242.52,55.15,245.39,57.35,247.18,59.73z"/>
			<path class="st0" d="M345.64,59.7c0.9,0,1.79,0,2.68,0c1.73-2.44,4.55-4.73,4.93-7.36c0.54-3.71-2.28-6.31-6.3-6.27
				c-3.95,0.04-6.87,2.47-6.26,6.28C341.13,55,343.91,57.26,345.64,59.7z"/>
			<path class="st0" d="M300.79,65.96c-0.3-1.37-2.02-2.44-3.13-3.64c-1.1,1.21-2.81,2.3-3.1,3.69c-0.19,0.91,1.65,2.26,3.16,4.12
				C299.19,68.25,301,66.88,300.79,65.96z"/>
			<path class="st0" d="M297.45,59.49c1.27-0.31,2.72-1.66,3.14-2.9c0.25-0.73-1.35-2.09-2.73-4.03c-1.5,1.98-2.98,3.09-3.07,4.31
				C294.72,57.74,296.75,59.66,297.45,59.49z"/>
		</g>
		<path class="st0" d="M297.67,101.22c-108.29,0-196.08,87.79-196.08,196.09c0,108.29,87.79,196.08,196.08,196.08
			c108.3,0,196.09-87.79,196.09-196.08C493.76,189.01,405.97,101.22,297.67,101.22z M297.67,484.15
			c-102.49,0-185.58-83.08-185.58-185.58s83.09-185.58,185.58-185.58c102.5,0,185.59,83.08,185.59,185.58
			S400.17,484.15,297.67,484.15z"/>
		<ellipse class="st0" cx="297.7" cy="299.47" rx="175.45" ry="176.13"/>
	</g>
	<g>
		<g>
			<path d="M241.66,230.77c5.1,0.73,8.74-1.8,11.48-5.68c1.9-2.69,3.34-5.71,4.94-8.6c4.05-7.33,10.68-10.84,18.54-9.75
				c1.1,0.15,2.19,0.42,3.28,0.64c-0.57-0.55-1.21-0.93-1.9-1.17c-6.2-2.23-11.96-1.27-17.16,2.66c-1.71,1.29-3.08,3.02-4.61,4.55
				l0.08-0.08l0,0c-1.31,2.48-2.51,5.03-3.95,7.43c-1.04,1.74-2.25,3.43-3.64,4.9c-1.87,1.97-4.31,3.2-7.04,2.5
				c-1.22-0.31-2.63-1.49-3.14-2.63c-0.83-1.88-0.01-3.84,1.65-5.04c0.92-0.67,2.26-0.76,3.41-1.12c0.09,0.24,0.18,0.47,0.26,0.71
				c-0.34,0.3-0.85,0.54-0.99,0.92c-0.16,0.46-0.14,1.09,0.05,1.55c0.1,0.24,0.84,0.47,1.09,0.33c0.43-0.23,0.87-0.71,1-1.17
				c0.11-0.4-0.11-0.97-0.33-1.38c-0.86-1.61-2.85-2.03-4.81-1.04c-2.34,1.18-3.68,3.97-3.24,6.79
				C236.99,228.5,238.92,230.38,241.66,230.77z"/>
			<path d="M263.45,212.17c-1.47,1.32-2.47,2.91-2.24,5c0.25,2.34,2,3.47,4.18,2.65c0.92-0.34,1.81-0.78,2.68-1.25
				c6.36-3.48,13.14-4.91,20.37-4.26c0.35,0.03,0.72-0.15,1.51-0.33c-1.49-1.08-2.65-1.92-3.82-2.76l0,0
				c2.17,0.92,4.34,1.84,6.34,2.69c-5.49,1.04-11.06,1.84-16.5,3.18c-5.49,1.36-10.72,3.54-15.52,6.66
				c22.59-11.17,45.35-11.54,68.33-1.17c-8.29-4.55-17.12-7.04-26.37-8.24c0.48-0.04,0.96-0.08,1.45-0.1
				c5.34-0.22,10.56,0.31,15.49,2.57c1.98,0.91,3.89,2.03,5.94,2.74c1.05,0.36,2.74,0.48,3.43-0.12c0.83-0.72,1.45-2.48,1.15-3.49
				c-0.46-1.57-1.51-3.23-2.78-4.27c-5.42-4.47-11.54-4.14-17.78-2.03c-1.45,0.49-2.87,1.1-4.3,1.66l0,0
				c0.53-0.45,1.1-0.85,1.57-1.36c1.29-1.38,2.67-2.71,3.75-4.25c0.95-1.35,0.99-2.95-0.25-4.29c-1.26-1.36-2.91-1.4-4.24-0.46
				c-2.04,1.45-3.85,3.23-5.72,4.91c-0.48,0.43-0.8,1.02-1.2,1.54c0.2-2.95,0.78-5.7,1.11-8.48c0.47-3.95,0.44-7.94-1.22-11.62
				c-0.49-1.09-1.89-2.19-3.06-2.45c-1.58-0.36-2.76,0.96-3.25,2.46c-0.5,1.52-0.91,3.11-1.1,4.7c-0.66,5.39,0.28,10.65,1.51,15.91
				c-0.85-0.87-1.42-1.96-2.28-2.69c-1.9-1.62-3.85-3.25-6-4.48c-0.75-0.43-2.54-0.07-3.18,0.59c-0.73,0.75-1.08,2.31-0.88,3.38
				c0.21,1.15,1.11,2.26,1.95,3.19c1.12,1.24,2.46,2.27,3.71,3.39l-0.05-0.04c0.02,0.02,0.05,0.05,0.05,0.05
				c-2.03-0.76-4.01-1.7-6.09-2.24C274.09,207.46,268.35,207.74,263.45,212.17z M323.21,210.31c1.8,0.84,3.4,2.22,4.85,3.61
				c0.67,0.64,1.02,1.87,1.06,2.86c0.09,2.01-1.37,2.94-3.22,2.15c-1.55-0.66-3-1.57-4.57-2.18c-3.05-1.19-6.15-2.24-9.44-3.42
				c3.86,0.18,7.56,0.35,11.27,0.52c-3.48-3.01-7.6-3.72-12.01-3.68C315.19,208.89,319.27,208.46,323.21,210.31z M305.99,201.88
				c0.97-0.4,2.78-0.33,3.35,0.3c0.58,0.64,0.52,2.48,0,3.37c-1.74,2.98-4.47,4.9-8.22,6.24c1.99-2.33,3.65-4.27,5.45-6.39
				c-3.1-0.37-4.9,1.5-7.24,3.39C301.11,205.51,303.05,203.11,305.99,201.88z M305.05,211.21l-0.03,0.03
				C305.04,211.23,305.05,211.22,305.05,211.21c-1.16,0.88-2.32,1.75-3.47,2.62c0.07,0.14,0.13,0.28,0.2,0.43
				c-1.03-0.13-2.06-0.24-3.1-0.34C300.8,213.02,302.93,212.12,305.05,211.21z M292.95,188.51c0.36-1.4,1.08-3.07,2.68-2.73
				c1.07,0.23,2.34,1.62,2.69,2.75c1.56,4.97,1.09,10.04,0.07,15.07c-0.31,1.51-0.71,3-0.99,4.21h-3.45
				C292.22,201.6,291.24,195.14,292.95,188.51z M281.66,205.19c-0.43-0.79-0.36-2.41,0.18-3.01c0.55-0.6,2.13-0.8,2.99-0.47
				c3.15,1.2,5.17,3.7,6.7,6.66c-1.97-1.52-3.83-3.24-6.96-3.05c1.87,2.2,3.52,4.14,5.56,6.54
				C286.22,210.34,283.38,208.38,281.66,205.19z M277.69,209.39c0.81,0.12,1.59,0.39,2.39,0.59c-4.42,0.15-8.53,0.88-12.08,3.85
				c3.68-0.17,7.36-0.33,10.5-0.47c-4.11,1.74-8.61,3.67-13.13,5.55c-1.94,0.81-3.67-0.25-3.23-2.27c0.35-1.58,1.39-3.25,2.6-4.34
				C268.44,208.98,273,208.7,277.69,209.39z"/>
			<path d="M334.55,212.48c-1.04-0.93-2.07-1.87-3.12-2.79c-5.79-5.13-14.68-6.18-20.38-2.24c0.77-0.16,1.31-0.27,1.85-0.39
				c8.11-1.8,15.27,1.21,19.57,8.32c1.09,1.81,1.81,3.86,3.03,5.57c1.94,2.73,3.94,5.48,6.32,7.81c2.09,2.04,5,2.53,7.93,1.99
				c2.63-0.48,4.44-2.28,4.84-4.68c0.45-2.7-0.77-5.48-3.06-6.68c-1.59-0.83-3.35-1.21-4.57,0.46c-0.48,0.66-0.24,1.85-0.33,2.8
				c0.58-0.03,1.15-0.05,1.73-0.08c-0.3-0.8-0.6-1.6-0.89-2.4c-0.02-0.06-0.01-0.13-0.02-0.26c1.46-0.91,2.7-0.31,3.78,0.69
				c1.44,1.34,2.29,3.16,1.46,4.95c-0.53,1.14-1.93,2.35-3.15,2.62c-3.19,0.7-5.99-0.76-7.74-3.29c-2.54-3.69-4.61-7.7-6.87-11.57
				c0.92,1.15,1.74,2.4,2.79,3.41c1.09,1.05,2.29,2.1,3.65,2.7c1.36,0.61,2.84,0.19,3.66-1.25c0.76-1.31,0.56-2.63-0.54-3.67
				c-1.29-1.2-2.63-0.74-3.89,0.07c0.41-0.03,0.89-0.46,1.14-0.35c0.77,0.34,1.63,0.75,2.1,1.39c0.24,0.33-0.23,1.74-0.44,1.75
				c-0.74,0.05-1.7-0.08-2.21-0.54c-0.87-0.78-1.51-1.85-2.17-2.84c-1.56-2.34-2.92-4.84-4.65-7.05
				c-5.12-6.54-15.63-5.33-19.98-2.52C327.23,204.09,330.51,205.4,334.55,212.48z"/>
			<path d="M276.96,204.29c-1.69-0.74-3.34-1.3-5.03-1.67c-7.35-1.62-12.98,0.69-17.1,6.99c-0.92,1.41-1.68,2.94-2.61,4.35
				c-0.73,1.11-1.49,2.26-2.47,3.13c-0.44,0.39-1.46,0.11-2.22,0.14c0.17-0.87,0.06-2.02,0.58-2.53c0.47-0.47,1.62-0.25,2.61-0.34
				c-1.37-0.45-2.7-1.09-4,0.16c-1.09,1.05-1.3,2.35-0.54,3.67c0.83,1.43,2.28,1.83,3.66,1.26c1.25-0.51,2.39-1.42,3.38-2.38
				c1.14-1.11,2.06-2.46,3.07-3.7c0,0-0.08,0.08-0.08,0.08C260.38,204.23,268.18,203.26,276.96,204.29z"/>
			<path d="M301.25,202.28c3.55-3.75,6.7-7.09,9.86-10.42C305.97,192.05,301.13,197.23,301.25,202.28z"/>
			<path d="M280.57,191.41c-0.16,0.17-0.31,0.33-0.47,0.5c3.15,3.31,6.3,6.63,9.8,10.31C290.15,197.33,285.29,192.11,280.57,191.41z
				"/>
			<path d="M276.61,203.33c0.34-0.01,0.68-0.02,1.02-0.03c0.62-0.94,1.63-1.82,1.76-2.82c0.19-1.44-0.93-2.33-2.42-2.29
				c-1.51,0.03-2.54,1.04-2.29,2.43C274.86,201.61,275.94,202.44,276.61,203.33z"/>
			<path d="M313.66,203.32c0.34,0,0.67,0,1.01,0c0.65-0.92,1.71-1.78,1.85-2.77c0.2-1.4-0.86-2.37-2.37-2.36
				c-1.49,0.01-2.59,0.93-2.35,2.36C311.97,201.55,313.01,202.4,313.66,203.32z"/>
			<path d="M296.79,205.68c-0.11-0.52-0.76-0.92-1.18-1.37c-0.42,0.46-1.06,0.87-1.17,1.39c-0.07,0.34,0.62,0.85,1.19,1.55
				C296.18,206.54,296.86,206.02,296.79,205.68z"/>
			<path d="M295.53,203.24c0.48-0.12,1.03-0.62,1.18-1.09c0.09-0.28-0.51-0.79-1.03-1.52c-0.57,0.74-1.12,1.16-1.15,1.62
				C294.51,202.59,295.27,203.31,295.53,203.24z"/>
		</g>
		<g>
			<path d="M241.66,365.4c5.1-0.73,8.74,1.8,11.48,5.68c1.9,2.69,3.34,5.71,4.94,8.6c4.05,7.33,10.68,10.84,18.54,9.75
				c1.1-0.15,2.19-0.42,3.28-0.64c-0.57,0.55-1.21,0.93-1.9,1.17c-6.2,2.23-11.96,1.27-17.16-2.66c-1.71-1.29-3.08-3.02-4.61-4.55
				l0.08,0.08l0,0c-1.31-2.48-2.51-5.03-3.95-7.43c-1.04-1.74-2.25-3.43-3.64-4.9c-1.87-1.97-4.31-3.2-7.04-2.5
				c-1.22,0.31-2.63,1.49-3.14,2.63c-0.83,1.88-0.01,3.84,1.65,5.04c0.92,0.67,2.26,0.76,3.41,1.12c0.09-0.24,0.18-0.47,0.26-0.71
				c-0.34-0.3-0.85-0.54-0.99-0.92c-0.16-0.46-0.14-1.09,0.05-1.55c0.1-0.24,0.84-0.47,1.09-0.33c0.43,0.23,0.87,0.71,1,1.17
				c0.11,0.4-0.11,0.97-0.33,1.38c-0.86,1.61-2.85,2.03-4.81,1.04c-2.34-1.18-3.68-3.97-3.24-6.79
				C236.99,367.68,238.92,365.8,241.66,365.4z"/>
			<path d="M280.1,387.14c2.09-0.55,4.07-1.49,6.09-2.24c0,0-0.03,0.03-0.05,0.05l0.05-0.04c-1.25,1.12-2.59,2.16-3.71,3.39
				c-0.83,0.92-1.74,2.04-1.95,3.19c-0.19,1.08,0.16,2.63,0.88,3.38c0.63,0.66,2.42,1.02,3.18,0.59c2.15-1.23,4.1-2.86,6-4.48
				c0.87-0.74,1.43-1.83,2.28-2.69c-1.23,5.27-2.17,10.53-1.51,15.91c0.19,1.59,0.6,3.18,1.1,4.7c0.5,1.5,1.67,2.82,3.25,2.46
				c1.17-0.26,2.57-1.36,3.06-2.45c1.66-3.68,1.69-7.67,1.22-11.62c-0.33-2.78-0.92-5.53-1.11-8.48c0.39,0.52,0.72,1.11,1.2,1.54
				c1.87,1.68,3.68,3.46,5.72,4.91c1.33,0.94,2.98,0.9,4.24-0.46c1.24-1.34,1.2-2.93,0.25-4.29c-1.08-1.54-2.46-2.86-3.75-4.25
				c-0.47-0.5-1.04-0.91-1.57-1.36l0,0c1.43,0.56,2.84,1.17,4.3,1.66c6.24,2.11,12.35,2.44,17.78-2.03c1.27-1.05,2.32-2.7,2.78-4.27
				c0.3-1.01-0.33-2.77-1.15-3.49c-0.68-0.6-2.38-0.48-3.43-0.12c-2.05,0.71-3.95,1.83-5.94,2.74c-4.93,2.26-10.15,2.79-15.49,2.57
				c-0.48-0.02-0.96-0.06-1.45-0.1c9.25-1.2,18.08-3.69,26.37-8.24c-22.98,10.37-45.74,10-68.33-1.17
				c4.8,3.13,10.03,5.31,15.52,6.66c5.44,1.34,11.01,2.15,16.5,3.18c-1.99,0.85-4.17,1.77-6.34,2.69l0,0
				c1.16-0.84,2.32-1.68,3.82-2.76c-0.78-0.18-1.15-0.37-1.51-0.33c-7.22,0.65-14.01-0.78-20.37-4.26
				c-0.86-0.47-1.76-0.91-2.68-1.25c-2.18-0.81-3.93,0.31-4.18,2.65c-0.22,2.1,0.78,3.68,2.24,5
				C268.35,388.43,274.09,388.72,280.1,387.14z M311.16,386c4.4,0.05,8.53-0.67,12.01-3.68c-3.71,0.17-7.41,0.34-11.27,0.52
				c3.29-1.18,6.39-2.24,9.44-3.42c1.57-0.61,3.02-1.52,4.57-2.18c1.85-0.78,3.31,0.14,3.22,2.15c-0.05,0.98-0.39,2.22-1.06,2.86
				c-1.45,1.39-3.05,2.77-4.85,3.61C319.27,387.71,315.19,387.29,311.16,386z M299.33,387.38c2.34,1.89,4.14,3.76,7.24,3.39
				c-1.81-2.12-3.46-4.06-5.45-6.39c3.75,1.34,6.48,3.25,8.22,6.24c0.52,0.88,0.57,2.73,0,3.37c-0.57,0.63-2.38,0.71-3.35,0.3
				C303.05,393.06,301.11,390.66,299.33,387.38z M298.68,382.25c1.04-0.1,2.07-0.21,3.1-0.34c-0.07,0.14-0.13,0.28-0.2,0.43
				c1.16,0.87,2.31,1.75,3.47,2.62c0,0-0.01-0.01-0.03-0.03l0.03,0.03C302.93,384.06,300.8,383.15,298.68,382.25z M293.95,388.36
				h3.45c0.29,1.21,0.69,2.7,0.99,4.21c1.02,5.03,1.49,10.09-0.07,15.07c-0.35,1.13-1.62,2.52-2.69,2.75
				c-1.6,0.34-2.32-1.33-2.68-2.73C291.24,401.04,292.22,394.57,293.95,388.36z M290.13,384.32c-2.05,2.4-3.69,4.34-5.56,6.54
				c3.13,0.18,4.99-1.54,6.96-3.05c-1.54,2.96-3.56,5.46-6.7,6.66c-0.86,0.33-2.44,0.13-2.99-0.47c-0.54-0.6-0.61-2.22-0.18-3.01
				C283.38,387.79,286.22,385.83,290.13,384.32z M264.74,383.87c-1.22-1.09-2.26-2.76-2.6-4.34c-0.44-2.02,1.29-3.08,3.23-2.27
				c4.52,1.88,9.02,3.81,13.13,5.55c-3.14-0.14-6.82-0.31-10.5-0.47c3.55,2.98,7.66,3.7,12.08,3.85c-0.8,0.2-1.58,0.47-2.39,0.59
				C273,387.48,268.44,387.19,264.74,383.87z"/>
			<path d="M334.55,383.7c-1.04,0.93-2.07,1.87-3.12,2.79c-5.79,5.13-14.68,6.18-20.38,2.24c0.77,0.16,1.31,0.27,1.85,0.39
				c8.11,1.8,15.27-1.21,19.57-8.32c1.09-1.81,1.81-3.86,3.03-5.57c1.94-2.73,3.94-5.48,6.32-7.81c2.09-2.04,5-2.53,7.93-1.99
				c2.63,0.48,4.44,2.28,4.84,4.68c0.45,2.7-0.77,5.48-3.06,6.68c-1.59,0.83-3.35,1.21-4.57-0.46c-0.48-0.66-0.24-1.85-0.33-2.8
				c0.58,0.03,1.15,0.05,1.73,0.08c-0.3,0.8-0.6,1.6-0.89,2.4c-0.02,0.06-0.01,0.13-0.02,0.26c1.46,0.91,2.7,0.31,3.78-0.69
				c1.44-1.34,2.29-3.16,1.46-4.95c-0.53-1.14-1.93-2.35-3.15-2.62c-3.19-0.7-5.99,0.76-7.74,3.29c-2.54,3.69-4.61,7.7-6.87,11.57
				c0.92-1.15,1.74-2.4,2.79-3.41c1.09-1.05,2.29-2.1,3.65-2.7c1.36-0.61,2.84-0.19,3.66,1.25c0.76,1.31,0.56,2.63-0.54,3.67
				c-1.29,1.2-2.63,0.74-3.89-0.07c0.41,0.03,0.89,0.46,1.14,0.35c0.77-0.34,1.63-0.75,2.1-1.39c0.24-0.33-0.23-1.74-0.44-1.75
				c-0.74-0.05-1.7,0.08-2.21,0.54c-0.87,0.78-1.51,1.85-2.17,2.84c-1.56,2.34-2.92,4.84-4.65,7.05
				c-5.12,6.54-15.63,5.33-19.98,2.52C327.23,392.08,330.51,390.77,334.55,383.7z"/>
			<path d="M276.96,391.89c-1.69,0.74-3.34,1.3-5.03,1.67c-7.35,1.62-12.98-0.69-17.1-6.99c-0.92-1.41-1.68-2.94-2.61-4.35
				c-0.73-1.11-1.49-2.26-2.47-3.13c-0.44-0.39-1.46-0.11-2.22-0.14c0.17,0.87,0.06,2.02,0.58,2.53c0.47,0.47,1.62,0.25,2.61,0.34
				c-1.37,0.45-2.7,1.09-4-0.16c-1.09-1.05-1.3-2.35-0.54-3.67c0.83-1.43,2.28-1.83,3.66-1.26c1.25,0.51,2.39,1.42,3.38,2.38
				c1.14,1.11,2.06,2.46,3.07,3.7c0,0-0.08-0.08-0.08-0.08C260.38,391.94,268.18,392.91,276.96,391.89z"/>
			<path d="M301.25,393.89c3.55,3.75,6.7,7.09,9.86,10.42C305.97,404.12,301.13,398.95,301.25,393.89z"/>
			<path d="M280.57,404.77c-0.16-0.17-0.31-0.33-0.47-0.5c3.15-3.31,6.3-6.63,9.8-10.31C290.15,398.84,285.29,404.07,280.57,404.77z
				"/>
			<path d="M276.61,392.84c0.34,0.01,0.68,0.02,1.02,0.03c0.62,0.94,1.63,1.82,1.76,2.82c0.19,1.44-0.93,2.33-2.42,2.29
				c-1.51-0.03-2.54-1.04-2.29-2.43C274.86,394.56,275.94,393.74,276.61,392.84z"/>
			<path d="M313.66,392.85c0.34,0,0.67,0,1.01,0c0.65,0.92,1.71,1.78,1.85,2.77c0.2,1.4-0.86,2.37-2.37,2.36
				c-1.49-0.01-2.59-0.93-2.35-2.36C311.97,394.62,313.01,393.77,313.66,392.85z"/>
			<path d="M296.79,390.5c-0.11,0.52-0.76,0.92-1.18,1.37c-0.42-0.46-1.06-0.87-1.17-1.39c-0.07-0.34,0.62-0.85,1.19-1.55
				C296.18,389.64,296.86,390.15,296.79,390.5z"/>
			<path d="M295.53,392.93c0.48,0.12,1.03,0.62,1.18,1.09c0.09,0.28-0.51,0.79-1.03,1.52c-0.57-0.74-1.12-1.16-1.15-1.62
				C294.51,393.59,295.27,392.87,295.53,392.93z"/>
		</g>
		<g>
			<path d="M225.93,245.63c0.85,5.08-1.6,8.78-5.41,11.61c-2.64,1.96-5.63,3.47-8.49,5.14c-7.23,4.22-10.59,10.93-9.31,18.76
				c0.18,1.1,0.47,2.18,0.72,3.27c-0.57-0.55-0.96-1.19-1.22-1.87c-2.37-6.14-1.55-11.93,2.26-17.22c1.25-1.74,2.95-3.15,4.44-4.72
				l-0.07,0.08l0,0c2.45-1.36,4.97-2.63,7.34-4.12c1.71-1.08,3.38-2.33,4.81-3.76c1.92-1.92,3.09-4.38,2.33-7.1
				c-0.34-1.21-1.55-2.59-2.71-3.07c-1.9-0.79-3.84,0.08-5,1.77c-0.65,0.94-0.71,2.28-1.04,3.44c0.24,0.08,0.48,0.17,0.71,0.25
				c0.29-0.35,0.52-0.87,0.89-1.01c0.46-0.18,1.09-0.17,1.55,0.01c0.24,0.09,0.49,0.83,0.36,1.08c-0.22,0.44-0.69,0.89-1.15,1.03
				c-0.4,0.12-0.97-0.09-1.39-0.3c-1.63-0.82-2.09-2.81-1.16-4.78c1.12-2.37,3.89-3.77,6.71-3.4
				C223.55,241.01,225.48,242.9,225.93,245.63z"/>
			<path d="M205.1,284.56c0.6,2.07,1.58,4.03,2.39,6.04c0,0-0.03-0.03-0.05-0.05l0.05,0.05c-1.15-1.22-2.22-2.54-3.48-3.63
				c-0.94-0.81-2.08-1.69-3.23-1.87c-1.08-0.17-2.63,0.22-3.36,0.96c-0.64,0.65-0.96,2.45-0.51,3.19c1.28,2.12,2.96,4.03,4.62,5.89
				c0.76,0.85,1.86,1.39,2.75,2.22c-5.3-1.11-10.58-1.92-15.95-1.14c-1.59,0.23-3.16,0.67-4.68,1.21c-1.49,0.53-2.78,1.73-2.38,3.31
				c0.29,1.17,1.42,2.54,2.52,3.01c3.72,1.57,7.71,1.51,11.65,0.95c2.77-0.4,5.51-1.05,8.45-1.31c-0.51,0.41-1.09,0.75-1.51,1.23
				c-1.64,1.91-3.37,3.76-4.77,5.83c-0.91,1.35-0.83,3,0.56,4.23c1.37,1.21,2.96,1.13,4.29,0.15c1.51-1.11,2.8-2.53,4.16-3.85
				c0.49-0.48,0.88-1.06,1.32-1.6l0,0c-0.52,1.44-1.1,2.87-1.56,4.34c-1.96,6.29-2.15,12.41,2.45,17.72
				c1.08,1.25,2.75,2.26,4.34,2.68c1.02,0.27,2.76-0.39,3.46-1.23c0.58-0.7,0.43-2.39,0.04-3.43c-0.75-2.03-1.92-3.91-2.88-5.87
				c-2.37-4.87-3.02-10.08-2.93-15.42c0.01-0.48,0.04-0.97,0.07-1.45c1.42,9.22,4.11,17.99,8.85,26.17
				c-10.9-22.73-11.06-45.49-0.43-68.34c-3.01,4.87-5.07,10.15-6.3,15.67c-1.22,5.47-1.89,11.06-2.79,16.57
				c-0.89-1.97-1.87-4.12-2.84-6.27l0,0c0.87,1.14,1.74,2.28,2.85,3.75c0.16-0.79,0.34-1.16,0.3-1.51
				c-0.82-7.21,0.45-14.02,3.78-20.46c0.45-0.87,0.87-1.78,1.19-2.7c0.76-2.2-0.41-3.93-2.75-4.12c-2.1-0.17-3.66,0.86-4.95,2.36
				C203.53,272.85,203.39,278.59,205.1,284.56z M206.97,315.6c0.06,4.4,0.87,8.51,3.96,11.92c-0.26-3.7-0.52-7.4-0.79-11.26
				c1.26,3.26,2.38,6.34,3.64,9.36c0.65,1.55,1.59,2.98,2.28,4.51c0.83,1.83-0.07,3.31-2.08,3.27c-0.99-0.02-2.23-0.34-2.88-1
				c-1.42-1.42-2.84-2.99-3.72-4.76C205.45,323.74,205.78,319.65,206.97,315.6z M205.31,303.8c-1.83,2.39-3.66,4.23-3.22,7.32
				c2.08-1.86,3.97-3.56,6.26-5.6c-1.25,3.78-3.1,6.55-6.04,8.37c-0.87,0.54-2.71,0.64-3.37,0.07c-0.64-0.55-0.76-2.36-0.38-3.34
				C199.72,307.64,202.07,305.65,205.31,303.8z M210.43,303.03c0.12,1.03,0.26,2.06,0.41,3.09c-0.14-0.06-0.29-0.12-0.43-0.19
				c-0.85,1.18-1.69,2.35-2.54,3.53c0,0,0.01-0.01,0.03-0.03l-0.03,0.03C208.72,307.32,209.57,305.17,210.43,303.03z M204.2,298.44
				l0.08,3.45c-1.21,0.32-2.68,0.75-4.18,1.09c-5,1.14-10.06,1.73-15.06,0.28c-1.14-0.33-2.56-1.56-2.81-2.63
				c-0.38-1.59,1.28-2.35,2.66-2.75C191.47,296.03,197.95,296.86,204.2,298.44z M208.16,294.53c-2.45-1.99-4.43-3.59-6.67-5.41
				c-0.11,3.14,1.65,4.96,3.21,6.89c-3-1.47-5.55-3.43-6.82-6.55c-0.35-0.85-0.19-2.44,0.4-3c0.58-0.56,2.2-0.66,3.01-0.25
				C204.53,287.86,206.56,290.65,208.16,294.53z M208.01,269.13c1.06-1.24,2.71-2.32,4.28-2.7c2.01-0.49,3.11,1.22,2.34,3.18
				c-1.78,4.56-3.6,9.11-5.24,13.26c0.07-3.14,0.15-6.83,0.22-10.51c-2.89,3.62-3.52,7.75-3.57,12.17
				c-0.22-0.79-0.51-1.57-0.65-2.37C204.6,277.48,204.78,272.91,208.01,269.13z"/>
			<path d="M209.82,338.92c-0.96-1.02-1.92-2.03-2.87-3.05c-5.27-5.67-6.53-14.53-2.71-20.33c-0.14,0.78-0.24,1.32-0.35,1.86
				c-1.61,8.15,1.57,15.24,8.78,19.37c1.83,1.05,3.9,1.72,5.64,2.9c2.77,1.88,5.57,3.81,7.95,6.14c2.09,2.05,2.64,4.94,2.17,7.88
				c-0.42,2.64-2.18,4.5-4.56,4.95c-2.69,0.51-5.49-0.64-6.75-2.9c-0.87-1.57-1.28-3.32,0.35-4.58c0.65-0.5,1.84-0.28,2.79-0.39
				c-0.01,0.58-0.03,1.15-0.04,1.73c-0.81-0.28-1.61-0.56-2.42-0.84c-0.06-0.02-0.13-0.01-0.26-0.02c-0.88,1.48-0.25,2.71,0.78,3.77
				c1.38,1.41,3.21,2.21,4.98,1.34c1.13-0.56,2.31-1.99,2.55-3.21c0.63-3.21-0.9-5.97-3.47-7.66c-3.74-2.45-7.8-4.42-11.73-6.6
				c1.17,0.89,2.44,1.69,3.47,2.71c1.07,1.06,2.15,2.24,2.79,3.58c0.65,1.35,0.26,2.83-1.16,3.69c-1.3,0.79-2.62,0.62-3.68-0.46
				c-1.23-1.26-0.8-2.61-0.02-3.89c-0.02,0.41-0.44,0.9-0.33,1.15c0.35,0.76,0.79,1.61,1.44,2.06c0.34,0.24,1.73-0.27,1.74-0.48
				c0.03-0.74-0.12-1.7-0.59-2.2c-0.8-0.85-1.88-1.46-2.89-2.1c-2.38-1.51-4.9-2.81-7.15-4.48c-6.66-4.96-5.69-15.5-2.99-19.92
				C201.26,331.8,202.65,335.05,209.82,338.92z"/>
			<path d="M200.28,281.53c-0.78-1.67-1.38-3.3-1.79-4.99c-1.79-7.31,0.38-13,6.59-17.26c1.39-0.96,2.9-1.75,4.29-2.71
				c1.09-0.76,2.23-1.54,3.07-2.55c0.38-0.45,0.08-1.46,0.08-2.22c-0.87,0.19-2.01,0.11-2.52,0.64c-0.46,0.48-0.21,1.63-0.28,2.62
				c-0.48-1.36-1.16-2.67,0.07-4c1.02-1.12,2.32-1.35,3.65-0.63c1.45,0.79,1.88,2.23,1.34,3.63c-0.48,1.26-1.37,2.43-2.3,3.43
				c-1.08,1.17-2.41,2.12-3.63,3.16c0,0,0.08-0.08,0.08-0.08C199.84,264.96,199.06,272.78,200.28,281.53z"/>
			<path d="M198.85,305.87c-3.67,3.63-6.93,6.87-10.19,10.1C188.73,310.83,193.79,305.87,198.85,305.87z"/>
			<path d="M187.49,285.45c0.16-0.16,0.33-0.32,0.49-0.48c3.39,3.07,6.77,6.14,10.54,9.56C193.64,294.89,188.3,290.15,187.49,285.45
				z"/>
			<path d="M199.32,281.22c0,0.34,0,0.68-0.01,1.02c-0.92,0.64-1.78,1.67-2.78,1.83c-1.43,0.22-2.35-0.88-2.35-2.36
				c0-1.51,0.98-2.56,2.38-2.34C197.56,279.5,198.41,280.56,199.32,281.22z"/>
			<path d="M200.18,318.25c0.01,0.34,0.02,0.67,0.02,1.01c-0.9,0.67-1.74,1.75-2.73,1.92c-1.39,0.23-2.39-0.8-2.41-2.31
				c-0.02-1.49,0.87-2.61,2.31-2.41C198.37,316.6,199.25,317.63,200.18,318.25z"/>
			<path d="M202.14,301.33c-0.52-0.1-0.94-0.74-1.4-1.15c0.45-0.43,0.84-1.08,1.36-1.2c0.34-0.08,0.86,0.6,1.58,1.15
				C202.98,300.7,202.49,301.4,202.14,301.33z"/>
			<path d="M199.68,300.13c-0.1,0.48-0.6,1.04-1.06,1.21c-0.27,0.1-0.8-0.49-1.54-0.99c0.73-0.58,1.14-1.15,1.59-1.19
				C198.99,299.12,199.73,299.86,199.68,300.13z"/>
		</g>
		<g>
			<path d="M365.64,245.88c-0.79,5.09,1.7,8.76,5.54,11.54c2.67,1.93,5.67,3.4,8.54,5.04c7.28,4.14,10.71,10.81,9.53,18.65
				c-0.17,1.1-0.45,2.18-0.68,3.27c0.56-0.56,0.94-1.2,1.2-1.88c2.3-6.17,1.41-11.94-2.46-17.19c-1.27-1.72-2.98-3.12-4.49-4.67
				l0.08,0.08l0,0c-2.47-1.33-5-2.57-7.39-4.04c-1.73-1.06-3.4-2.29-4.85-3.7c-1.95-1.89-3.14-4.35-2.42-7.07
				c0.33-1.22,1.52-2.61,2.67-3.1c1.89-0.81,3.84,0.04,5.02,1.71c0.66,0.93,0.74,2.27,1.08,3.42c-0.24,0.09-0.47,0.17-0.71,0.26
				c-0.3-0.35-0.53-0.86-0.9-1c-0.46-0.17-1.09-0.15-1.55,0.03c-0.24,0.1-0.48,0.83-0.35,1.08c0.23,0.44,0.7,0.88,1.16,1.02
				c0.4,0.12,0.97-0.1,1.38-0.32c1.62-0.84,2.06-2.83,1.1-4.8c-1.15-2.36-3.93-3.72-6.75-3.32
				C367.97,241.24,366.07,243.15,365.64,245.88z"/>
			<path d="M383.99,267.89c-1.31-1.48-2.88-2.5-4.98-2.3c-2.34,0.22-3.49,1.96-2.7,4.15c0.33,0.92,0.76,1.82,1.22,2.69
				c3.41,6.4,4.76,13.2,4.02,20.41c-0.04,0.35,0.14,0.72,0.32,1.51c1.1-1.48,1.96-2.63,2.81-3.78l0,0c-0.95,2.16-1.89,4.32-2.77,6.3
				c-0.97-5.5-1.71-11.08-2.99-16.54c-1.29-5.5-3.41-10.76-6.48-15.6c10.9,22.72,11,45.49,0.36,68.34
				c4.65-8.23,7.24-17.04,8.55-26.27c0.04,0.48,0.07,0.96,0.09,1.45c0.16,5.34-0.44,10.55-2.75,15.45c-0.93,1.97-2.08,3.86-2.81,5.9
				c-0.37,1.05-0.51,2.74,0.08,3.43c0.71,0.83,2.46,1.48,3.48,1.19c1.58-0.45,3.24-1.47,4.3-2.73c4.53-5.37,4.28-11.49,2.24-17.75
				c-0.47-1.46-1.07-2.88-1.61-4.32l0,0c0.44,0.53,0.84,1.11,1.34,1.59c1.37,1.3,2.68,2.71,4.2,3.8c1.34,0.96,2.94,1.02,4.29-0.2
				c1.37-1.24,1.44-2.89,0.51-4.23c-1.42-2.06-3.18-3.89-4.84-5.78c-0.42-0.48-1.01-0.81-1.52-1.22c2.95,0.23,5.69,0.85,8.46,1.21
				c3.94,0.52,7.93,0.54,11.64-1.08c1.1-0.48,2.21-1.87,2.49-3.04c0.38-1.58-0.92-2.77-2.42-3.28c-1.52-0.52-3.1-0.95-4.69-1.16
				c-5.38-0.72-10.65,0.15-15.93,1.32c0.88-0.84,1.97-1.4,2.72-2.25c1.64-1.88,3.29-3.81,4.55-5.95c0.44-0.75,0.1-2.54-0.55-3.18
				c-0.74-0.73-2.29-1.1-3.37-0.92c-1.15,0.19-2.28,1.09-3.21,1.91c-1.25,1.11-2.3,2.43-3.44,3.67l0.05-0.05
				c-0.02,0.02-0.05,0.05-0.05,0.05c0.78-2.02,1.75-3.99,2.32-6.07C388.57,278.58,388.36,272.85,383.99,267.89z M385.14,327.67
				c-0.86,1.79-2.26,3.37-3.67,4.81c-0.65,0.66-1.89,0.99-2.87,1.03c-2.01,0.07-2.92-1.4-2.12-3.24c0.68-1.54,1.6-2.98,2.23-4.54
				c1.22-3.04,2.31-6.13,3.53-9.4c-0.22,3.86-0.44,7.56-0.65,11.26c3.05-3.44,3.81-7.56,3.82-11.96
				C386.65,319.67,387.03,323.75,385.14,327.67z M393.77,310.55c0.39,0.97,0.29,2.78-0.34,3.34c-0.65,0.57-2.49,0.49-3.37-0.04
				c-2.96-1.78-4.84-4.53-6.14-8.29c2.31,2.02,4.23,3.7,6.32,5.53c0.41-3.1-1.44-4.92-3.3-7.28
				C390.2,305.62,392.57,307.59,393.77,310.55z M384.45,309.5l-0.03-0.03C384.43,309.49,384.45,309.5,384.45,309.5
				c-0.86-1.17-1.72-2.34-2.58-3.51c-0.14,0.06-0.29,0.13-0.43,0.19c0.14-1.03,0.27-2.06,0.38-3.09
				C382.69,305.23,383.57,307.37,384.45,309.5z M407.29,297.67c1.39,0.38,3.06,1.12,2.7,2.71c-0.24,1.07-1.65,2.32-2.78,2.66
				c-4.99,1.5-10.05,0.98-15.07-0.11c-1.5-0.32-2.99-0.74-4.2-1.04l0.04-3.45C394.21,296.78,400.69,295.88,407.29,297.67z
				 M390.75,286.18c0.8-0.42,2.42-0.33,3.01,0.22c0.59,0.55,0.77,2.14,0.43,2.99c-1.24,3.13-3.76,5.12-6.74,6.63
				c1.54-1.95,3.28-3.79,3.13-6.93c-2.22,1.84-4.18,3.47-6.61,5.48C385.54,290.68,387.53,287.87,390.75,286.18z M386.6,282.16
				c-0.13,0.81-0.41,1.59-0.62,2.38c-0.1-4.42-0.78-8.54-3.71-12.12c0.12,3.68,0.24,7.36,0.35,10.5c-1.69-4.13-3.56-8.65-5.39-13.2
				c-0.79-1.95,0.29-3.67,2.31-3.2c1.57,0.36,3.23,1.43,4.31,2.66C387.11,272.92,387.34,277.48,386.6,282.16z"/>
			<path d="M382.83,338.98c0.94-1.03,1.89-2.05,2.83-3.08c5.2-5.73,6.36-14.6,2.48-20.36c0.15,0.78,0.25,1.32,0.37,1.85
				c1.71,8.13-1.39,15.26-8.56,19.47c-1.82,1.07-3.88,1.77-5.6,2.96c-2.75,1.91-5.53,3.88-7.88,6.23c-2.07,2.07-2.59,4.97-2.08,7.91
				c0.45,2.63,2.23,4.47,4.62,4.9c2.7,0.48,5.49-0.71,6.71-2.98c0.85-1.58,1.25-3.33-0.41-4.58c-0.65-0.49-1.85-0.26-2.79-0.36
				c0.02,0.58,0.04,1.15,0.06,1.73c0.8-0.29,1.61-0.58,2.41-0.86c0.06-0.02,0.13-0.01,0.26-0.02c0.9,1.47,0.28,2.71-0.73,3.77
				c-1.36,1.43-3.19,2.25-4.96,1.4c-1.14-0.55-2.33-1.96-2.58-3.18c-0.66-3.2,0.83-5.98,3.38-7.7c3.71-2.5,7.75-4.51,11.65-6.74
				c-1.16,0.91-2.42,1.71-3.44,2.75c-1.06,1.08-2.12,2.27-2.75,3.61c-0.63,1.36-0.22,2.83,1.2,3.68c1.31,0.77,2.63,0.59,3.67-0.5
				c1.22-1.27,0.77-2.62-0.03-3.89c0.02,0.41,0.45,0.9,0.34,1.14c-0.35,0.77-0.77,1.62-1.42,2.08c-0.34,0.24-1.74-0.25-1.75-0.46
				c-0.04-0.74,0.1-1.7,0.56-2.21c0.79-0.86,1.86-1.48,2.87-2.14c2.36-1.53,4.87-2.86,7.1-4.57c6.6-5.04,5.51-15.56,2.75-19.95
				C391.31,331.76,389.96,335.03,382.83,338.98z"/>
			<path d="M391.7,281.49c0.76-1.68,1.34-3.32,1.73-5.01c1.71-7.33-0.53-12.99-6.78-17.18c-1.4-0.94-2.92-1.71-4.32-2.66
				c-1.1-0.74-2.24-1.52-3.1-2.51c-0.38-0.44-0.09-1.46-0.11-2.22c0.87,0.18,2.01,0.08,2.52,0.61c0.46,0.47,0.23,1.62,0.31,2.61
				c0.47-1.37,1.12-2.68-0.11-4c-1.04-1.1-2.34-1.33-3.66-0.58c-1.44,0.81-1.86,2.25-1.3,3.65c0.5,1.25,1.4,2.41,2.34,3.4
				c1.1,1.16,2.43,2.09,3.67,3.12c0,0-0.08-0.08-0.08-0.08C391.96,264.92,392.83,272.73,391.7,281.49z"/>
			<path d="M393.42,305.8c3.71,3.59,7.01,6.79,10.31,9.98C403.59,310.65,398.48,305.75,393.42,305.8z"/>
			<path d="M404.54,285.25c-0.16-0.16-0.33-0.31-0.49-0.47c-3.35,3.11-6.7,6.22-10.43,9.68
				C398.5,294.77,403.79,289.97,404.54,285.25z"/>
			<path d="M392.66,281.16c0.01,0.34,0.01,0.68,0.02,1.02c0.93,0.63,1.8,1.65,2.8,1.79c1.44,0.21,2.34-0.9,2.32-2.39
				c-0.01-1.51-1.01-2.55-2.41-2.32C394.41,279.43,393.57,280.49,392.66,281.16z"/>
			<path d="M392.24,318.21c0,0.34-0.01,0.67-0.01,1.01c0.91,0.66,1.76,1.73,2.75,1.89c1.39,0.22,2.38-0.83,2.39-2.34
				c0-1.49-0.9-2.6-2.33-2.38C394.03,316.53,393.16,317.57,392.24,318.21z"/>
			<path d="M390.08,301.3c0.52-0.11,0.93-0.75,1.38-1.16c-0.45-0.42-0.85-1.07-1.37-1.18c-0.34-0.08-0.86,0.61-1.57,1.17
				C389.23,300.69,389.73,301.38,390.08,301.3z"/>
			<path d="M392.53,300.07c0.11,0.48,0.61,1.03,1.08,1.2c0.28,0.1,0.79-0.5,1.53-1.01c-0.74-0.57-1.15-1.13-1.61-1.17
				C393.2,299.06,392.47,299.81,392.53,300.07z"/>
		</g>
		<g>
			<path d="M375.5,298.91c0,22.14-7.32,40.42-21.94,54.85c-14.9,14.18-34.05,21.27-57.46,21.27c-23.14,0-42.16-7.21-57.06-21.64
				c-14.63-14.67-21.94-33.08-21.94-55.22c0-22.14,7.31-40.54,21.94-55.22c14.89-14.67,33.91-22.01,57.06-22.01
				c23.14,0,42.16,7.59,57.06,22.76C368.05,258.37,375.5,276.77,375.5,298.91z M358.34,298.91c0-20.64-5.46-37.81-16.36-51.49
				c-10.91-13.43-26.2-20.15-45.88-20.15c-19.42,0-34.58,6.72-45.49,20.15c-10.91,13.19-16.36,30.1-16.36,50.74
				c0,20.4,5.32,37.07,15.96,50c11.17,13.93,26.46,20.89,45.88,20.89c19.68,0,35.11-6.84,46.28-20.52
				C353.02,335.84,358.34,319.3,358.34,298.91z"/>
		</g>
	</g>
	<path class="st0" d="M199.38,431.92c-2.02,0-3.95-0.87-5.29-2.38c-1.35-1.52-1.98-3.54-1.74-5.55
		c2.73-22.82,20.06-41.53,32.72-55.19c7.42-8.01,17.33-18.48,28.18-28.41c7.98-7.31,16.2-13.93,25.34-21.21l5.25-4.17
		c7.99-6.34,16.25-12.91,24.13-19.59c11.26-9.55,19.92-17.77,27.25-25.88c8.79-9.72,15.4-18.99,20.21-28.36
		c5.31-10.35,8.4-20.95,9.16-31.53c0.96-13.28-1.28-23.9-6.67-31.57c-6.56-9.34-17.01-14.12-24.61-16.49
		c-9.75-3.04-20.92-4.17-34.13-3.46c-13.7,0.73-26.18,3.41-37.07,7.97c-13.38,5.6-23.15,13.28-27.5,21.61
		c-2.15,4.12-2.89,9.3-2.26,15.84c0.13,1.36,0.35,2.78,0.58,4.29c0.81,5.29,1.82,11.87-1.07,18.5c-2.01,4.62-5.54,8.06-9.69,9.46
		c-3.6,1.21-7.48,0.82-10.92-1.1c-7.72-4.31-11.7-14.18-12.23-22.04c-0.81-12.19,5.27-24.52,18.58-37.7
		c10.28-10.18,22.34-18.61,34.87-24.39c14.81-6.83,31.3-10.58,47.69-10.86c15.84-0.28,30.84,2.53,44.54,8.34
		c14.27,6.05,26.36,15.17,34.95,26.37c9.95,12.98,15.35,28.92,15.21,44.9c-0.13,14.55-4.61,29.41-13.33,44.17
		c-10.03,16.99-24.32,32.25-41.3,44.15c-5.69,3.99-11.6,7.66-17.31,11.21c-4.09,2.54-8.32,5.17-12.36,7.86
		c-10.16,6.74-19.39,14.74-26.29,20.95c-1.5,1.35-3.02,2.69-4.54,4.03c-4.82,4.25-9.8,8.66-14.07,13.31
		c-10.75,11.73-14.27,28.66-9.62,45.12h81.46c1.83,0,3.66,0,5.49,0.01c3.62,0.01,7.24,0.02,10.88-0.01c1.63-0.01,3.09,0,4.43,0.02
		c5.56,0.05,8.35,0.08,14.08-1.71c6.63-2.07,8.48-4.23,8.54-5.09c0,0,0,0,0,0c0.05-0.78,0.19-1.55,0.42-2.31
		c1.32-4.32,4.94-7.5,9.93-8.71c5.99-1.46,14.93-0.17,19.52,4.51c5.99,6.11,4.47,15.44,0,21.11c-4.31,5.47-10.71,8.14-15.81,9.85
		c-11.22,3.76-18.18,3.78-28.71,3.8l-166.86,0.35C199.39,431.92,199.38,431.92,199.38,431.92z M247.91,365.32
		c-4.62,4.72-8.83,9.21-12.44,13.11c-10.2,11.01-22.53,24.31-27.3,39.3l35.38-0.07C237.32,399.56,239.04,380.55,247.91,365.32z
		 M394.84,406c-0.55,3.13-2.02,5.92-4.4,8.34c0,0,0.01,0,0.01,0c3.23-1.08,7.19-2.65,9.18-5.18c0.69-0.87,0.94-1.93,0.92-2.42
		C399.26,406.03,396.39,405.7,394.84,406z M378.97,204.93c-0.02,1.87-0.11,3.79-0.25,5.75c-0.91,12.49-4.5,24.93-10.69,36.98
		c-5.38,10.48-12.68,20.75-22.3,31.39c-7.3,8.07-15.76,16.18-26.51,25.4c4.34-2.71,8.71-5.51,12.87-8.42
		c15.34-10.74,28.21-24.49,37.23-39.74c7.43-12.58,11.25-25.06,11.36-37.09C380.72,214.4,380.14,209.6,378.97,204.93z
		 M218.04,196.37c-3.59,5.52-5.2,10.6-4.88,15.35c0.28,4.24,2.42,8.91,4.73,10.45c0.26-0.25,0.65-0.73,0.98-1.49
		c1.25-2.87,0.69-6.49,0.05-10.68c-0.25-1.64-0.51-3.33-0.68-5.1C217.95,201.9,217.88,199.06,218.04,196.37z"/>
	<path d="M387.98,403.78c-0.41,6.57-8.34,9.8-13.5,11.41c-8.34,2.6-11.99,1.96-20.58,2.02c-5.49,0.04-10.93,0-16.41,0
		c-22.41,0-44.82,0-67.23,0c-5.77,0-13.57,0-19.34,0c-7.34-19.39-4.57-41.64,9.51-56.99c5.87-6.41,12.66-12.03,19.09-17.82
		c8.64-7.77,17.47-15.19,27.11-21.59c9.75-6.47,19.93-12.25,29.53-18.97c15.59-10.92,29.44-25.31,39.26-41.94
		c7.23-12.24,12.22-26.17,12.35-40.63c0.13-14.67-4.95-29.06-13.75-40.53c-8.33-10.87-19.72-18.92-32.09-24.16
		c-13.16-5.58-27.46-8.02-41.65-7.78c-15.41,0.26-30.77,3.73-44.85,10.21c-12.1,5.58-23.29,13.52-32.85,22.99
		c-8.31,8.22-17.34,19.52-16.49,32.19c0.39,5.88,3.35,13.39,8.61,16.33c4.54,2.54,8.76-0.65,10.66-5
		c2.73-6.26,0.55-12.82-0.07-19.28c-0.65-6.81-0.16-13.68,3.04-19.8c6.21-11.89,19.3-19.95,31.05-24.87
		c12.49-5.23,26-7.8,39.43-8.51c12.27-0.65,24.8,0.1,36.61,3.77c10.95,3.41,21.49,9.48,28.31,19.18
		c7.33,10.44,8.85,23.59,7.94,36.16c-0.87,12.02-4.47,23.63-9.93,34.25c-5.63,10.96-13.08,20.83-21.26,29.87
		c-8.64,9.55-18.15,18.24-27.93,26.53c-9.67,8.2-19.64,16.01-29.55,23.9c-8.48,6.75-16.95,13.55-24.96,20.89
		c-9.68,8.87-18.82,18.35-27.77,28c-13.03,14.06-28.47,31.03-30.89,51.22c0,0,143.09-0.3,143.09-0.3
		c7.64-0.02,15.29-0.03,22.93-0.05c10.82-0.02,16.91,0.06,27.31-3.43c4.5-1.51,9.43-3.62,12.49-7.51c2.56-3.25,3.67-8.53,0.5-11.77
		c-3.43-3.5-15.72-4.83-17.6,1.33C388.03,403.32,387.99,403.55,387.98,403.78"/>
</g>
</svg>
